<svg width="130" height="24" viewBox="0 0 130 24" fill="none" xmlns="http://www.w3.org/2000/svg">
<path d="M128.308 11.6923C128.148 12.3988 128.068 12.923 128.068 13.2649C128.068 13.3105 128.068 13.3447 128.068 13.3675C127.863 15.5555 127.054 18.0854 125.641 20.9572C125.345 21.6182 125.083 22.0968 124.855 22.3931C124.627 22.6894 124.273 23.0199 123.795 23.3846C123.225 23.7948 122.781 23.9999 122.462 23.9999C122.234 23.9999 121.915 23.9202 121.504 23.7606C121.003 23.5555 120.695 23.4073 120.581 23.3162C120.49 23.225 120.365 23.0199 120.205 22.7008C120.091 22.4729 120.034 22.2791 120.034 22.1196C120.034 21.9829 120.125 21.9145 120.308 21.9145C120.467 21.9145 120.729 22.0056 121.094 22.188C121.459 22.3703 121.732 22.4615 121.915 22.4615C122.12 22.4615 122.439 22.3703 122.872 22.188C123.259 22.0056 123.601 21.7321 123.897 21.3675C124.194 21.0256 124.399 20.7065 124.513 20.4102C124.65 20.1367 124.821 19.7264 125.026 19.1794C125.208 18.6552 125.356 18.2564 125.47 17.9829C125.607 17.6866 125.698 17.47 125.744 17.3333C125.789 17.1965 125.869 16.9344 125.983 16.547C126.074 16.1595 126.165 15.829 126.256 15.5555C126.37 15.1908 126.45 14.6552 126.496 13.9487C126.564 13.2193 126.655 12.6609 126.769 12.2735C126.883 11.7721 126.94 11.4302 126.94 11.2478C126.94 11.0199 126.838 10.906 126.632 10.906C126.45 10.906 126.12 11.225 125.641 11.8632C125.322 12.2963 125.026 12.6154 124.752 12.8205C124.501 13.0256 124.171 13.1852 123.761 13.2991C123.601 13.3447 123.476 13.3675 123.385 13.3675C123.271 13.3675 123.111 13.3219 122.906 13.2307C122.564 13.0712 122.291 12.8433 122.085 12.547C121.88 12.2507 121.675 11.7379 121.47 11.0085C120.969 9.3903 120.718 8.15953 120.718 7.31623C120.718 6.51851 120.9 6.11965 121.265 6.11965C121.584 6.11965 121.869 6.65526 122.12 7.72648C122.12 8.09115 122.348 8.92306 122.803 10.2222C122.986 10.7236 123.1 11.0655 123.145 11.2478C123.236 11.6809 123.419 11.8974 123.692 11.8974C123.806 11.8974 123.92 11.8632 124.034 11.7948C124.581 11.3846 125.276 10.4159 126.12 8.88887C126.963 7.36181 127.453 6.13105 127.59 5.19658C127.59 5.01424 127.681 4.8547 127.863 4.71794C128.046 4.58119 128.251 4.51282 128.479 4.51282C128.752 4.51282 128.969 4.60399 129.128 4.78632C129.311 4.96866 129.402 5.19658 129.402 5.47008C129.402 5.65242 129.345 5.91452 129.231 6.2564C129.071 6.8262 128.912 7.52136 128.752 8.34187C128.615 9.13958 128.547 9.73217 128.547 10.1196C128.547 10.4387 128.467 10.9629 128.308 11.6923Z" fill="#FCFCFD"/>
<path d="M117.231 15.5555C117.163 15.5783 117.106 15.5897 117.06 15.5897C116.673 15.5897 116.183 14.7692 115.59 13.1282C115.476 12.8546 115.282 12.5242 115.009 12.1367C114.758 11.7264 114.576 11.3732 114.462 11.0769C114.12 10.3247 113.846 9.94867 113.641 9.94867C113.505 9.94867 113.299 10.1652 113.026 10.5982C112.866 10.8262 112.741 10.9971 112.65 11.1111C111.761 12.4558 110.872 13.3675 109.983 13.8461C109.482 14.1196 109.003 14.2564 108.547 14.2564C107.727 14.2564 107.225 13.9145 107.043 13.2307C106.975 12.9344 106.94 12.6153 106.94 12.2735C106.94 11.225 107.282 9.92588 107.966 8.37603C108.126 7.98857 108.308 7.66948 108.513 7.41877C108.718 7.16806 109.06 6.80338 109.539 6.32475C110.291 5.59541 110.781 5.16236 111.009 5.02561C111.237 4.88886 111.67 4.75211 112.308 4.61536C112.331 4.61536 112.354 4.61536 112.376 4.61536C112.467 4.61536 112.581 4.64954 112.718 4.71792C112.855 4.7635 112.98 4.82048 113.094 4.88886C113.231 4.95724 113.379 5.0598 113.539 5.19655C113.721 5.31051 113.858 5.41307 113.949 5.50424C114.063 5.57262 114.2 5.67518 114.359 5.81193C114.519 5.92589 114.61 5.99427 114.633 6.01706C114.792 6.15381 114.895 6.29057 114.94 6.42732C114.986 6.56407 115.02 6.91734 115.043 7.48714C115.089 8.07973 115.146 8.48999 115.214 8.71791C115.282 8.94583 115.499 9.41306 115.864 10.1196C116.479 11.3276 116.969 12.49 117.334 13.6068C117.562 14.2677 117.675 14.7122 117.675 14.9401C117.675 15.1224 117.618 15.2706 117.505 15.3846C117.413 15.4757 117.322 15.5327 117.231 15.5555ZM108.376 11.9658C108.376 12.3988 108.559 12.6153 108.923 12.6153C109.334 12.6153 109.96 12.1709 110.804 11.282C111.715 10.3475 112.445 9.3219 112.992 8.20509C113.22 7.81763 113.334 7.46435 113.334 7.14526C113.334 6.4843 112.969 6.10823 112.24 6.01706C111.92 6.01706 111.647 6.08544 111.419 6.22219C111.214 6.35894 110.861 6.70082 110.359 7.24783C109.334 8.31905 108.73 9.47004 108.547 10.7008C108.433 11.339 108.376 11.7606 108.376 11.9658Z" fill="#FCFCFD"/>
<path d="M102.94 1.33329C102.94 0.900239 103.065 0.683716 103.316 0.683716C103.498 0.683716 103.703 0.820468 103.931 1.09397C104.182 1.36747 104.387 1.65237 104.547 1.94867C104.615 2.24496 104.649 2.56405 104.649 2.90593C104.649 3.38456 104.558 4.05693 104.376 4.92302C104.216 5.76632 104.114 6.34752 104.068 6.6666C104 7.32757 103.897 7.86318 103.76 8.27344C103.669 8.52415 103.589 8.75207 103.521 8.9572C103.248 9.98283 102.883 11.0199 102.427 12.0683C101.994 13.1167 101.572 13.9372 101.162 14.5298C100.775 15.0996 100.342 15.3845 99.863 15.3845C99.2476 15.3845 98.7006 14.8831 98.222 13.8803C98.108 13.6295 97.8117 12.9116 97.3331 11.7264C96.8545 10.5412 96.4556 9.68654 96.1365 9.16232C95.9314 8.79765 95.7263 8.39879 95.5211 7.96575C95.3388 7.50991 95.1565 7.14524 94.9741 6.87173C94.7462 6.64381 94.5981 6.52985 94.5297 6.52985C94.4385 6.52985 94.3245 6.62102 94.1878 6.80336C94.051 6.9629 93.8573 7.29338 93.6066 7.79481C93.3559 8.27344 93.1508 8.68369 92.9912 9.02557C92.8317 9.36745 92.5468 9.97144 92.1365 10.8375C91.3844 12.4558 90.883 13.4586 90.6322 13.8461C90.4043 14.2335 90.1878 14.4273 89.9827 14.4273C89.7775 14.4273 89.5382 14.2905 89.2647 14.017C89.0824 13.8119 88.9912 13.4358 88.9912 12.8888C88.9912 12.5013 89.0254 11.9201 89.0938 11.1452C89.1622 10.3475 89.1963 9.82329 89.1963 9.57258C89.1963 9.11674 89.1508 8.33042 89.0596 7.21361C88.9912 6.07401 88.957 5.28769 88.957 4.85464C88.957 4.19368 89.014 3.77203 89.128 3.58969C89.2419 3.40735 89.4015 3.31619 89.6066 3.31619C89.8117 3.31619 89.9827 3.39596 90.1194 3.5555C90.2106 3.66946 90.3132 4.22786 90.4271 5.23071C90.5411 6.23356 90.5981 7.14524 90.5981 7.96575C90.5981 8.21646 90.5867 8.44438 90.5639 8.6495C90.5639 8.83184 90.5639 8.97999 90.5639 9.09395C90.5639 9.61816 90.655 9.88027 90.8374 9.88027C91.0653 9.88027 91.3388 9.5042 91.6579 8.75207C91.9086 8.11389 92.3302 7.32757 92.9228 6.3931C93.4015 5.61817 93.7547 5.10535 93.9827 4.85464C94.2106 4.58114 94.4385 4.44439 94.6664 4.44439H94.7006C94.7918 4.46718 94.8716 4.47858 94.9399 4.47858C95.1906 4.56974 95.4528 4.79766 95.7263 5.16233C96.0226 5.50421 96.2505 5.8347 96.41 6.15378C96.5696 6.47287 96.7747 6.90592 97.0254 7.45293C97.2305 7.88597 97.3787 8.19366 97.4698 8.376C97.8573 9.19651 98.2448 10.188 98.6322 11.3504C98.9057 12.1937 99.1109 12.7748 99.2476 13.0939C99.4072 13.413 99.5667 13.5726 99.7263 13.5726C99.8174 13.5726 99.8744 13.5384 99.8972 13.47C100.421 12.7862 100.934 11.8518 101.436 10.6666C101.937 9.45862 102.256 8.31902 102.393 7.2478C102.416 7.08825 102.541 6.43868 102.769 5.29909C102.997 4.15949 103.111 3.31619 103.111 2.76918C103.111 2.51847 103.077 2.25636 103.008 1.98286C102.963 1.70935 102.94 1.49283 102.94 1.33329Z" fill="#FCFCFD"/>
<path d="M77.9145 11.6923C77.9145 11.7606 77.9145 11.8746 77.9145 12.0342C77.9145 12.376 77.9601 12.7863 78.0513 13.2649C78.1424 13.7208 78.245 14.0512 78.3589 14.2564C78.4957 14.4615 78.5641 14.6438 78.5641 14.8034C78.5641 15.0085 78.4843 15.1566 78.3248 15.2478C78.188 15.3162 78.0627 15.3504 77.9487 15.3504C77.6524 15.3504 77.3675 15.1566 77.094 14.7692C76.9117 14.5185 76.7863 14.3133 76.7179 14.1538C76.6723 13.9715 76.6382 13.5726 76.6154 12.9572C76.547 11.9316 76.4444 11.282 76.3077 11.0085C76.1709 10.8262 76.1025 10.6552 76.1025 10.4957C76.1025 10.3134 76.1937 10.0626 76.376 9.74356C76.5584 9.40168 76.6609 9.15097 76.6837 8.99143C76.7977 8.07975 76.98 7.05411 77.2307 5.91451C77.5042 4.75212 77.6752 3.85184 77.7436 3.21367C77.7664 2.94016 77.8461 2.57549 77.9829 2.11965C78.1196 1.66381 78.1994 1.31054 78.2222 1.05983C78.245 0.740739 78.3248 0.490027 78.4615 0.307691C78.6211 0.102564 78.8034 0 79.0085 0C79.1909 0.0455839 79.282 0.0683759 79.282 0.0683759C79.5099 0.341879 79.6239 0.569799 79.6239 0.752135C79.6239 0.82051 79.5897 1.00285 79.5213 1.29914C79.4758 1.57264 79.4416 1.86894 79.4188 2.18803C79.3504 3.03133 79.1567 4.20512 78.8376 5.70938C78.5413 7.19086 78.3931 8.06835 78.3931 8.34186C78.3931 8.61536 78.5071 8.75211 78.735 8.75211C78.7806 8.75211 78.849 8.74071 78.9401 8.71792C79.1453 8.64955 79.6581 8.19371 80.4786 7.35041C81.3219 6.48431 81.9145 5.82334 82.2564 5.36751C82.5983 4.84329 82.8604 4.5356 83.0427 4.44443C83.1795 4.35326 83.3276 4.30768 83.4871 4.30768C83.6923 4.30768 83.8632 4.37606 84 4.51281C84.1595 4.62677 84.2393 4.76352 84.2393 4.92306C84.2393 5.01423 84.1595 5.16238 84 5.36751C83.8404 5.57263 83.6467 5.80055 83.4188 6.05126C83.2136 6.30198 83.0655 6.5071 82.9743 6.66665C82.4273 7.53274 81.7777 8.2051 81.0256 8.68373C80.7521 8.86607 80.49 9.09399 80.2393 9.36749C80.0114 9.61821 79.8974 9.82333 79.8974 9.98288C79.8974 10.2108 80.2393 10.3475 80.923 10.3931C81.6752 10.4843 82.9173 10.9743 84.6495 11.8632C85.4245 12.2507 85.9145 12.5242 86.1196 12.6837C86.3248 12.8205 86.4273 12.9686 86.4273 13.1282C86.4273 13.5156 86.1538 13.7094 85.6068 13.7094C85.3789 13.7094 84.7635 13.5384 83.7607 13.1965C82.7578 12.8319 82.0626 12.5356 81.6752 12.3077C81.5384 12.2393 81.1852 12.1481 80.6154 12.0342C80.0456 11.9202 79.6923 11.8176 79.5555 11.7265C79.2136 11.5441 78.849 11.453 78.4615 11.453C78.302 11.453 78.1766 11.4757 78.0854 11.5213C77.9943 11.5669 77.9373 11.6239 77.9145 11.6923Z" fill="#FCFCFD"/>
<path d="M68.5124 10.1537C68.5579 10.1993 68.5807 10.2221 68.5807 10.2221H68.6149C68.7289 10.0853 68.9454 9.80043 69.2645 9.36738C69.5836 8.93433 69.8685 8.59245 70.1192 8.34174C70.3015 8.1822 70.575 7.90869 70.9397 7.52123C71.3272 7.11098 71.6804 6.7577 71.9995 6.4614C72.3186 6.14232 72.6035 5.903 72.8542 5.74346C73.1049 5.60671 73.2759 5.53833 73.367 5.53833C73.4582 5.53833 73.5722 5.58391 73.7089 5.67508C73.8457 5.76625 73.9141 5.85742 73.9141 5.94859C73.9141 6.10813 73.7431 6.38163 73.4012 6.7691C73.0821 7.15656 72.3756 7.90869 71.2816 9.0255C70.9625 9.34459 70.4155 10.0625 69.6406 11.1793C68.8656 12.2961 68.4212 12.9115 68.3072 13.0255C68.1933 13.1394 67.9767 13.4927 67.6577 14.0853C67.3386 14.6551 67.1562 14.9856 67.1106 15.0768C66.9739 15.2363 66.7802 15.3161 66.5294 15.3161C66.1192 15.3161 65.9141 15.1565 65.9141 14.8374C65.9141 14.5867 66.0508 14.1993 66.3243 13.6751C66.7802 12.9229 67.0081 11.8175 67.0081 10.3588C67.0081 8.4443 66.9055 7.3275 66.7004 7.00841C66.5181 6.82608 66.4269 6.62095 66.4269 6.39303C66.4269 6.25628 66.4839 6.13092 66.5978 6.01696C66.7118 5.903 66.8485 5.84602 67.0081 5.84602C67.3955 5.84602 67.726 6.15371 67.9995 6.7691C68.273 7.38448 68.4098 8.09103 68.4098 8.88875C68.4098 9.04829 68.3984 9.19644 68.3756 9.33319C68.3756 9.46994 68.3756 9.56111 68.3756 9.60669C68.3756 9.72065 68.387 9.83461 68.4098 9.94857C68.4554 10.0397 68.4896 10.1081 68.5124 10.1537Z" fill="#FCFCFD"/>
<path d="M61.8806 6.63238C62.7466 7.13381 63.1797 7.74919 63.1797 8.47853C63.1797 8.75204 63.0885 9.11671 62.9062 9.57255C62.4731 10.6894 61.6754 11.715 60.513 12.6495C59.3506 13.5839 58.3136 14.0512 57.4019 14.0512C56.6498 14.0512 56.08 13.7093 55.6925 13.0255C55.3051 12.3418 55.1113 11.5554 55.1113 10.6666C55.1113 9.57255 55.3962 8.67226 55.966 7.96571C56.5586 7.25916 57.4019 6.62099 58.4959 6.05119C58.7467 5.93723 59.0429 5.88025 59.3848 5.88025C60.2053 5.88025 61.0372 6.13096 61.8806 6.63238ZM61.0259 10.1196C61.5273 9.48138 61.778 9.02554 61.778 8.75204C61.778 8.43295 61.5159 8.10246 60.9917 7.76059C60.5814 7.50987 60.08 7.38452 59.4874 7.38452C59.1227 7.38452 58.8264 7.4415 58.5985 7.55546C58.4618 7.62383 58.3022 7.69221 58.1199 7.76059C57.8692 7.87454 57.6868 7.9999 57.5729 8.13665C57.4589 8.25061 57.288 8.54691 57.06 9.02554C56.7182 9.73209 56.5472 10.2107 56.5472 10.4614C56.5472 10.6666 56.6156 11.0084 56.7524 11.4871C56.9575 12.1708 57.2538 12.5127 57.6412 12.5127C57.8008 12.5127 58.0173 12.4557 58.2908 12.3418C59.2937 11.9315 60.2053 11.1908 61.0259 10.1196Z" fill="#FCFCFD"/>
<path d="M51.1108 1.33329C51.1108 0.900239 51.2362 0.683716 51.4869 0.683716C51.6692 0.683716 51.8744 0.820468 52.1023 1.09397C52.353 1.36747 52.5581 1.65237 52.7177 1.94867C52.786 2.24496 52.8202 2.56405 52.8202 2.90593C52.8202 3.38456 52.7291 4.05693 52.5467 4.92302C52.3872 5.76632 52.2846 6.34752 52.239 6.6666C52.1707 7.32757 52.0681 7.86318 51.9313 8.27344C51.8402 8.52415 51.7604 8.75207 51.692 8.9572C51.4185 9.98283 51.0538 11.0199 50.598 12.0683C50.165 13.1167 49.7433 13.9372 49.333 14.5298C48.9456 15.0996 48.5125 15.3845 48.0339 15.3845C47.4185 15.3845 46.8715 14.8831 46.3929 13.8803C46.2789 13.6295 45.9826 12.9116 45.504 11.7264C45.0254 10.5412 44.6265 9.68654 44.3074 9.16232C44.1023 8.79765 43.8972 8.39879 43.692 7.96575C43.5097 7.50991 43.3274 7.14524 43.145 6.87173C42.9171 6.64381 42.769 6.52985 42.7006 6.52985C42.6094 6.52985 42.4954 6.62102 42.3587 6.80336C42.2219 6.9629 42.0282 7.29338 41.7775 7.79481C41.5268 8.27344 41.3217 8.68369 41.1621 9.02557C41.0026 9.36745 40.7177 9.97144 40.3074 10.8375C39.5553 12.4558 39.0539 13.4586 38.8031 13.8461C38.5752 14.2335 38.3587 14.4273 38.1536 14.4273C37.9484 14.4273 37.7091 14.2905 37.4356 14.017C37.2533 13.8119 37.1621 13.4358 37.1621 12.8888C37.1621 12.5013 37.1963 11.9201 37.2647 11.1452C37.3331 10.3475 37.3672 9.82329 37.3672 9.57258C37.3672 9.11674 37.3217 8.33042 37.2305 7.21361C37.1621 6.07401 37.1279 5.28769 37.1279 4.85464C37.1279 4.19368 37.1849 3.77203 37.2989 3.58969C37.4128 3.40735 37.5724 3.31619 37.7775 3.31619C37.9826 3.31619 38.1536 3.39596 38.2903 3.5555C38.3815 3.66946 38.4841 4.22786 38.598 5.23071C38.712 6.23356 38.769 7.14524 38.769 7.96575C38.769 8.21646 38.7576 8.44438 38.7348 8.6495C38.7348 8.83184 38.7348 8.97999 38.7348 9.09395C38.7348 9.61816 38.8259 9.88027 39.0083 9.88027C39.2362 9.88027 39.5097 9.5042 39.8288 8.75207C40.0795 8.11389 40.5011 7.32757 41.0937 6.3931C41.5724 5.61817 41.9256 5.10535 42.1536 4.85464C42.3815 4.58114 42.6094 4.44439 42.8373 4.44439H42.8715C42.9627 4.46718 43.0425 4.47858 43.1108 4.47858C43.3615 4.56974 43.6237 4.79766 43.8972 5.16233C44.1935 5.50421 44.4214 5.8347 44.5809 6.15378C44.7405 6.47287 44.9456 6.90592 45.1963 7.45293C45.4014 7.88597 45.5496 8.19366 45.6407 8.376C46.0282 9.19651 46.4157 10.188 46.8031 11.3504C47.0766 12.1937 47.2818 12.7748 47.4185 13.0939C47.5781 13.413 47.7376 13.5726 47.8972 13.5726C47.9883 13.5726 48.0453 13.5384 48.0681 13.47C48.5923 12.7862 49.1051 11.8518 49.6066 10.6666C50.108 9.45862 50.4271 8.31902 50.5638 7.2478C50.5866 7.08825 50.712 6.43868 50.9399 5.29909C51.1678 4.15949 51.2818 3.31619 51.2818 2.76918C51.2818 2.51847 51.2476 2.25636 51.1792 1.98286C51.1336 1.70935 51.1108 1.49283 51.1108 1.33329Z" fill="#FCFCFD"/>
<path d="M20.0684 11.2306C20.0684 11.5497 19.9886 11.7435 19.829 11.8118C19.6695 11.903 19.1567 11.96 18.2906 11.9828C17.3333 12.0056 16.6724 12.0625 16.3077 12.1537C15.3048 12.4272 14.6211 12.5754 14.2564 12.5982C13.9145 12.6437 13.1396 12.6779 11.9316 12.7007C10.3134 12.7235 9.04843 12.7235 8.13675 12.7007C7.24786 12.6779 6.70085 12.6437 6.49572 12.5982C6.31339 12.5754 5.91453 12.5412 5.29914 12.4956C4.68376 12.45 3.85185 12.4158 2.80342 12.393C1.61823 12.3702 0.91168 12.3474 0.68376 12.3247C0.478632 12.3019 0.319088 12.2449 0.205128 12.1537C0.068376 12.017 0 11.903 0 11.8118C0 11.7435 0.011396 11.6979 0.034188 11.6751C0.05698 11.6523 0.182336 11.5611 0.410256 11.4016C0.706552 11.1964 1.10541 11.0711 1.60684 11.0255C2.13105 10.9799 3.01994 10.9913 4.2735 11.0597C7.19088 11.1964 9.9829 11.2534 12.6496 11.2306C13.4701 11.2762 14.3476 11.1851 15.282 10.9571C16.2165 10.7292 16.9686 10.6039 17.5384 10.5811C18.792 10.5127 19.5214 10.5127 19.7265 10.5811C19.9544 10.6267 20.0684 10.8432 20.0684 11.2306Z" fill="#FCFCFD"/>
</svg>
