<svg width="160" height="120" viewBox="0 0 160 120" fill="none" xmlns="http://www.w3.org/2000/svg">
<path d="M79.162 0C88.8513 0.0134467 98.9066 3.73471 106.158 10.3076C107.949 11.9303 109.538 13.8299 111.008 15.7506C117.112 23.7299 118.773 31.2255 120.131 40.9803C120.847 46.1222 121.494 51.1998 123.451 56.0451C125.389 60.8446 127.423 62.6641 130.427 66.5827C133.613 70.7401 135.762 75.7746 136.047 81.0668C136.154 83.0458 135.972 88.1108 134.701 89.5518C136.543 90.4622 140.053 95.2179 141.243 97.0561C142.353 98.7682 146.782 107.351 146.415 109.15C148.143 109.156 158.569 108.863 159.43 109.422C159.718 109.611 159.953 110.021 159.993 110.366C160.021 110.62 159.968 110.823 159.792 111.012C159.441 111.391 158.772 111.516 158.277 111.566C156.349 111.764 154.294 111.577 152.35 111.579L139.379 111.585C139.408 111.686 139.42 111.704 139.42 111.825C139.415 113.169 138.365 114.948 137.429 115.849C136.33 116.909 135.222 117.207 133.74 117.169C133.156 118.029 132.272 118.887 131.277 119.219C129.814 119.707 128.495 119.112 127.197 118.464C127.154 118.55 127.145 118.575 127.074 118.658C126.459 119.37 125.421 119.826 124.505 119.893C122.958 120.007 121.787 119.403 120.657 118.392C120.228 118.815 119.808 119.196 119.278 119.485C118.338 119.996 117.27 120.156 116.244 119.83C114.827 119.38 114.037 118.291 113.385 117.011C112.635 117.43 111.899 117.777 111.035 117.862C109.964 117.966 108.953 117.639 108.126 116.943C106.549 115.616 106.046 113.571 105.878 111.591L80.3177 111.589L56.1992 111.588C56.0316 112.983 55.7732 114.339 55.0608 115.567C54.4526 116.616 53.5252 117.523 52.3287 117.808C51.0125 118.122 49.8773 117.706 48.7651 117.011C48.4349 117.597 48.0968 118.165 47.631 118.653C46.872 119.447 45.874 119.987 44.7678 120C43.3027 120.017 42.2671 119.223 41.2616 118.237C40.5288 119.077 39.6541 119.698 38.5406 119.865C36.98 120.099 35.6703 119.376 34.4643 118.46C33.4426 119.128 32.4164 119.611 31.1715 119.423C29.7773 119.211 28.8755 118.255 28.0653 117.168C27.0314 117.208 26.1287 117.185 25.1855 116.701C23.2555 115.709 22.5229 113.536 21.9056 111.584L7.36316 111.577C5.47495 111.57 3.46702 111.753 1.59387 111.591C1.16457 111.554 0.648331 111.469 0.314033 111.175C0.0982174 110.986 0.0161195 110.708 0.00160041 110.426C-0.0139942 110.125 0.0845952 109.832 0.287863 109.61C0.512103 109.366 0.773087 109.255 1.09573 109.21C2.45928 109.017 3.97608 109.139 5.35325 109.141L13.5315 109.142C15.997 102.173 19.2563 96.7737 24.5846 91.6962C23.5344 89.0417 22.9114 86.3171 22.8133 83.4526C22.6039 77.3353 24.618 71.6249 28.2734 66.7768C31.3975 62.6336 33.7589 60.3673 35.6903 55.3166C37.2996 51.1082 37.9562 46.6864 38.5859 42.2456C40.2705 30.3654 42.0814 21.7434 50.469 12.6262C52.6057 10.304 55.0947 8.3322 57.7257 6.61848C64.4233 2.25595 71.235 0.268206 79.162 0Z" fill="#1B1813"/>
<path d="M66.3367 31.3538C66.6255 31.6452 66.8601 33.808 67.0819 34.3874C68.041 36.8834 69.351 39.2255 70.9708 41.3415C73.8435 45.0468 79.3317 49.3697 84.1193 49.8211C84.4609 49.8533 84.6575 49.86 84.9219 49.6387C84.9176 49.3301 84.8267 49.1571 84.655 48.9044C84.1556 48.1693 83.4324 47.5857 82.9161 46.859C80.6203 43.6273 78.8789 39.3949 78.7025 35.3992C79.3314 36.6416 80.0474 37.7533 80.9202 38.8343C88.1023 47.7311 97.3292 51.1501 108.308 52.242C107.37 63.7807 107.28 69.2321 100.776 79.4653C99.7744 80.8307 98.6704 82.1154 97.4734 83.308C92.6701 88.0799 86.4844 91.2715 79.6699 91.1788C72.3514 91.0794 65.2825 87.4485 60.2412 82.1797C51.5337 72.1395 51.0856 64.235 50.2422 50.8703C58.4647 46.4587 62.7955 39.9047 66.3367 31.3538Z" fill="#FFD6B6"/>
<path d="M59.641 67.7786C60.6218 67.7708 61.582 67.9287 62.4664 68.3779C63.6088 68.9581 64.5264 69.9619 64.9204 71.2035C65.2952 72.4035 65.1815 73.7055 64.6047 74.8201C63.9021 76.188 62.7515 76.914 61.3359 77.3559C59.9966 77.492 58.7603 77.1711 57.695 76.3225C56.5364 75.4043 55.785 74.0571 55.6057 72.5772C55.4723 71.4145 55.7081 70.2235 56.4453 69.3008C57.2641 68.2763 58.3893 67.9014 59.641 67.7786Z" fill="#FFAC7F"/>
<path d="M98.1842 67.7837C99.1813 67.7608 100.129 67.8126 101.037 68.2758C101.938 68.7255 102.618 69.5296 102.918 70.5007C103.337 71.8377 103.106 73.3278 102.452 74.5467C101.611 76.1136 100.349 76.8619 98.7138 77.3661C97.5894 77.5029 96.4558 77.1989 95.5451 76.5164C94.5156 75.7269 93.8413 74.5518 93.6732 73.254C93.512 71.9733 93.9084 70.6402 94.6863 69.6256C95.5678 68.4755 96.7857 67.9453 98.1842 67.7837Z" fill="#FFAC7F"/>
<path d="M83.5269 79.5912C83.7152 79.0469 84.2938 78.7422 84.8457 78.9072C85.3976 79.0721 85.7204 79.6463 85.5873 80.2071L85.5732 80.2613C84.788 82.9613 82.2033 84.1744 79.9043 84.2003C77.6596 84.2257 75.1174 83.1082 74.4472 80.5083L74.4167 80.3834L74.4055 80.3285C74.3042 79.7609 74.6588 79.2064 75.2191 79.0736C75.7794 78.9409 76.34 79.2785 76.4973 79.8328L76.5112 79.887L76.5262 79.9479C76.8547 81.2204 78.1831 82.0392 79.8804 82.02C81.586 82.0008 83.0794 81.1247 83.5099 79.6446L83.5269 79.5912Z" fill="black"/>
<path d="M64.1415 52.0476C65.8829 51.8628 68.6487 51.9308 70.0575 53.0916C70.3608 53.3416 70.5344 53.6485 70.5525 54.049C70.5645 54.3181 70.4759 54.6105 70.2861 54.8047C69.6107 55.4965 67.2776 54.6377 66.3996 54.5107C65.8596 54.4326 65.284 54.4502 64.7391 54.4517C63.033 54.7557 60.7624 56.3409 59.3163 55.8463C59.1845 55.7182 59.046 55.6306 59.0103 55.4396C58.9431 55.0787 59.1904 54.6192 59.388 54.3383C60.471 52.7986 62.414 52.3358 64.1415 52.0476Z" fill="#1B1813"/>
<path d="M91.8569 52.0376C92.3647 52.0099 92.8784 51.9792 93.3871 51.9916C95.1094 52.0339 97.7133 52.6312 98.9107 53.9959C99.2616 54.3956 99.4423 54.77 99.4275 55.3084C99.2821 55.5971 99.2188 55.7601 98.8859 55.8708C97.9953 56.1671 96.9983 55.525 96.222 55.1348C95.1325 54.6925 94.1427 54.454 92.9598 54.475C91.8037 54.4956 89.3273 55.4759 88.3985 54.9867C88.2144 54.8897 88.1147 54.6638 88.0577 54.465C87.9823 54.2008 88.0262 53.8832 88.1753 53.6541C88.8581 52.6054 90.74 52.2474 91.8569 52.0376Z" fill="#1B1813"/>
<path d="M77.165 68.8835C78.1728 69.1599 78.376 70.1368 79.0876 70.7853C79.8102 71.4439 80.9291 71.5434 81.5475 72.3537C81.5982 72.5579 81.6669 72.6973 81.6068 72.9066C81.469 73.3874 80.8839 73.7732 80.4788 74.008C80.1717 73.9669 79.8638 73.9179 79.5623 73.845C78.3447 73.5515 77.0171 72.4901 76.3797 71.4075C76.1274 70.9789 75.9831 70.4748 76.123 69.9816C76.2923 69.3854 76.6612 69.153 77.165 68.8835Z" fill="#1B1813"/>
<path d="M104.941 77.4258C106.061 77.6842 107.176 77.9595 108.288 78.252C120.222 81.3495 133.403 88.3237 139.856 99.4258C140.722 100.916 144.047 107.666 143.671 109.133L140.043 109.127C140.159 108.969 140.226 108.798 140.265 108.605C140.604 106.987 139.761 104.907 138.878 103.594C136.293 99.755 130.613 97.7486 126.291 96.9131C119.253 95.5517 111.465 96.6966 105.487 100.848C102.543 102.891 100.88 105.614 100.222 109.141L61.7823 109.139C61.454 107.136 60.6875 105.296 59.4421 103.697C55.6924 98.8837 49.0163 97.1684 43.3129 96.4635C41.9711 96.4164 40.6301 96.3748 39.2879 96.4312C33.9707 96.6538 27.0313 98.4467 23.3206 102.596C21.6122 104.506 21.0721 106.594 21.182 109.114L16.335 109.108C17.2278 106.452 18.2563 103.925 19.6439 101.492C26.7661 89.0004 41.9756 82.9674 55.0428 79.4384C57.4693 82.922 60.2318 85.6878 63.6494 88.1662C63.7301 92.3054 65.1325 96.4524 68.0634 99.4172C71.5132 102.907 76.4504 104.347 81.2312 104.301C85.8 104.257 90.4967 102.734 93.728 99.344C97.1699 95.7325 98.0689 90.9398 97.969 86.1101C100.773 83.5051 102.965 80.7124 104.941 77.4258Z" fill="#778EEE"/>
<path d="M39.6841 98.8288C44.7281 98.6987 49.8925 99.5787 54.2294 102.317C56.8656 103.982 58.5443 106.06 59.2537 109.142L56.3131 109.145C56.3171 108.452 56.3472 107.75 56.3153 107.058C56.2981 106.689 56.1943 106.308 55.8942 106.071C55.6666 105.892 55.3805 105.796 55.0921 105.834C54.6773 105.888 54.373 106.193 54.2557 106.592C54.0905 107.153 54.1744 107.961 54.1638 108.55C54.1269 110.601 54.046 113.603 52.5961 115.176C52.3039 115.493 51.9449 115.686 51.5107 115.663C47.1559 115.43 50.168 106.812 48.4866 105.044C48.2602 104.972 48.1787 104.914 47.9521 104.988C45.5511 105.766 47.8521 113.96 46.5023 116.529C46.2457 117.017 45.8463 117.459 45.3044 117.607C44.5134 117.823 43.9513 117.532 43.2773 117.162C40.6459 113.593 41.97 106.095 41.122 104.974C40.9616 104.761 40.6687 104.589 40.4016 104.576C40.0895 104.562 39.8004 104.672 39.5902 104.907C38.9918 105.579 39.2232 107.735 39.2234 108.601C39.2057 111.017 39.6194 113.417 40.1127 115.771C39.8054 116.36 39.512 116.924 38.9655 117.32C38.5577 117.616 38.0795 117.76 37.582 117.664C35.074 117.177 34.4316 112.029 34.2638 109.995C34.1727 108.892 34.4836 106.31 33.8677 105.446C33.6104 105.086 33.2302 104.913 32.8173 104.871C31.389 105.792 32.3406 111.97 32.6565 113.507C32.8149 114.278 33.2037 115.121 33.2783 115.881C33.2978 116.081 33.2302 116.267 33.1317 116.437C32.8976 116.839 32.222 117.089 31.792 117.178C31.4521 117.249 31.1133 117.183 30.8283 116.98C29.4252 115.978 28.9052 112.474 28.7381 110.786C28.6558 109.954 28.6861 108.937 28.4716 108.14C28.3902 107.837 28.2781 107.72 28.0051 107.59C27.7189 107.454 27.4412 107.482 27.1534 107.595C25.3946 108.281 27.6732 113.59 27.1654 114.753C27.1121 114.761 27.0593 114.77 27.0058 114.775C26.481 114.824 25.9558 114.49 25.5781 114.155C24.1836 112.917 23.5661 110.194 23.4591 108.389C23.3612 106.736 24.0007 105.337 25.0771 104.119C28.3963 100.365 34.9553 99.0719 39.6841 98.8288Z" fill="#FFD6B6"/>
<path d="M119.642 98.8277C123.329 98.7563 126.973 99.2769 130.443 100.569C133.121 101.565 136.394 103.237 137.613 105.995C138.308 107.569 137.846 110.314 137.256 111.874C136.817 113.035 136.016 114.496 134.842 115.023C134.783 114.94 134.619 114.765 134.596 114.676C134.505 114.35 135.216 110.625 135.256 109.831C135.288 109.195 135.354 108.226 134.847 107.752C134.573 107.494 134.374 107.487 134.026 107.477C132.667 108.306 133.241 114.404 131.368 116.596C131.086 116.925 130.74 117.153 130.301 117.171C129.828 117.19 129.163 116.923 128.831 116.567C128.593 116.309 128.629 116.212 128.658 115.865C128.747 114.852 129.131 113.746 129.342 112.739C129.708 111.009 129.902 109.163 129.909 107.393C129.911 106.715 129.857 105.629 129.301 105.158C129.061 104.954 128.907 104.979 128.618 105.033C128.206 105.325 128.007 105.7 127.89 106.194C127.693 107.024 127.797 107.968 127.74 108.823C127.596 110.907 127.251 113.062 126.594 115.046C126.286 115.984 125.788 117.075 124.849 117.511C124.366 117.735 123.836 117.738 123.339 117.547C122.621 117.269 122.251 116.582 121.938 115.923C122.244 114.394 122.518 112.88 122.701 111.331C122.839 109.685 122.949 107.977 122.873 106.327C122.845 105.712 122.766 105.13 122.296 104.693C121.973 104.543 121.687 104.511 121.349 104.655C121.011 104.8 120.8 105.085 120.725 105.44C120.536 106.333 120.663 107.394 120.655 108.308C120.633 110.714 120.499 113.683 119.541 115.918C119.235 116.631 118.766 117.273 118.012 117.536C117.49 117.719 116.981 117.703 116.488 117.443C114.435 116.361 115.168 113.634 115.308 111.834C115.414 110.463 115.567 106.997 115.188 105.848C115.076 105.508 114.645 105.134 114.316 105.005C114.057 104.903 113.996 104.948 113.755 105.047C112.469 106.68 113.61 111.653 112.552 114.161C112.318 114.716 111.932 115.259 111.349 115.465C110.883 115.629 110.318 115.586 109.877 115.363C107.221 114.021 108.358 108.705 107.572 106.397C107.423 105.958 107.3 105.778 106.9 105.571C106.542 105.633 106.305 105.81 106.056 106.078C105.438 106.743 105.655 108.277 105.671 109.137L102.71 109.151C103.123 107.368 103.768 105.889 104.985 104.507C108.595 100.409 114.482 99.1426 119.642 98.8277Z" fill="#FFD6B6"/>
<path d="M95.4427 88.2771L95.5561 88.4201C95.6049 89.0021 95.5246 89.5736 95.4414 90.1485C94.9451 93.5796 93.199 96.8862 90.4174 98.9494C86.9362 101.531 82.2389 102.261 78.0328 101.612C74.1727 101.017 70.772 99.2287 68.4177 95.998C67.1379 94.0428 66.4562 91.9697 66.0264 89.6868C68.7995 91.3086 71.724 92.497 74.8743 93.1152C82.5283 94.6167 89.0917 92.6365 95.4427 88.2771Z" fill="#FFD6B6"/>
<path d="M112.53 50.5389C112.966 50.4938 113.456 50.4593 113.89 50.5274C114.887 50.684 115.877 51.3257 116.475 52.141C117.619 53.7023 117.757 55.807 117.478 57.6676C117.017 60.7423 115.702 63.514 113.198 65.3801C111.838 66.2729 110.752 66.5654 109.136 66.6759C110.082 63.2705 110.684 59.6739 111.145 56.1639C111.317 54.8549 111.203 52.2627 111.612 51.1356C111.734 50.7992 112.227 50.679 112.53 50.5389Z" fill="#FFD6B6"/>
<path d="M44.5676 50.5086C45.4156 50.4786 46.2163 50.7893 47.007 51.0599C47.4822 56.3708 48.2035 61.5023 49.4641 66.6853C48.5763 66.6264 47.7892 66.4663 46.9539 66.1518C45.0603 65.3281 43.5426 63.6153 42.6292 61.7744C41.5451 59.5895 40.7745 56.1288 41.591 53.752C42.1162 52.2231 43.1488 51.1958 44.5676 50.5086Z" fill="#FFD6B6"/>
<ellipse cx="65.9638" cy="63.4173" rx="3.22647" ry="3.27081" fill="#1B1813"/>
<ellipse cx="92.3134" cy="63.4173" rx="3.22647" ry="3.27081" fill="#1B1813"/>
</svg>
