<svg width="96" height="84" viewBox="0 0 96 84" fill="none" xmlns="http://www.w3.org/2000/svg">
<path d="M74.1289 8.19849C86.2078 8.19849 95.9999 17.9985 96 30.0872V54.3352L95.998 54.637C95.9179 60.5519 93.491 65.9025 89.6133 69.7932V82.0002H87.0967C86.119 82.0002 85.0865 81.7189 84.167 81.384C83.2024 81.0327 82.1563 80.5445 81.0918 79.9749C79.2139 78.9699 77.1625 77.6476 75.2236 76.1956C74.9491 76.2093 74.673 76.2186 74.3955 76.2219L74.1289 76.2239H60C54.8961 76.2238 50.2015 74.4722 46.4805 71.5393C47.9663 70.5007 49.2118 69.2985 50.2256 68.0569C52.9816 70.0268 56.3552 71.1867 60 71.1868H74.1289L74.334 71.1858C74.8114 71.18 75.2852 71.1544 75.7539 71.1096L76.75 71.0139L77.5391 71.6292C79.5009 73.1586 81.6153 74.5442 83.4639 75.5334C83.8555 75.743 84.2296 75.9308 84.5811 76.0969V67.5959L85.4102 66.8459C86.805 65.5852 87.9865 64.0949 88.8975 62.4358H66V57.2053H90.7246C90.8718 56.3466 90.9547 55.4657 90.9668 54.5676L90.9678 54.3352V50.426H71.8066V45.1965H90.9678V38.4163H77.0332V33.1868H90.9678V30.0872C90.9677 20.78 83.4286 13.2346 74.1289 13.2346H60C59.8871 13.2346 59.7745 13.2363 59.6621 13.2385C59.1363 11.5112 58.4152 9.86922 57.5244 8.33813C58.337 8.2465 59.163 8.1985 60 8.19849H74.1289Z" fill="#141A1F"/>
<path d="M36.5801 2C46.2723 2 54.3644 8.85589 56.2793 17.9863C59.0886 27.4206 62.3061 44.2399 62.3223 44.3242H52.4512V49.5547H43.1611C43.1612 52.7508 46.3763 57.1387 50.6143 57.1387C50.6143 60.6253 45.7158 69.6024 35.0322 69.6025H20.1289C9.01212 69.6025 0.000168115 60.5838 0 49.458V22.1455C0 11.0196 9.01202 2 20.1289 2H36.5801ZM42.9668 24.4697C40.8291 24.4699 39.0967 26.2043 39.0967 28.3438C39.0967 30.4832 40.8291 32.2176 42.9668 32.2178C45.1047 32.2178 46.8379 30.4834 46.8379 28.3438C46.8378 26.2042 45.1046 24.4697 42.9668 24.4697Z" fill="#4A69E8"/>
</svg>
