<svg width="123" height="48" viewBox="0 0 123 48" fill="none" xmlns="http://www.w3.org/2000/svg">
<path d="M117.557 43.1016L119.618 38.293H121.709L118.916 44.8789C118.657 45.4962 118.373 46.0389 118.064 46.5068C117.766 46.9847 117.412 47.3535 117.004 47.6123C116.596 47.871 116.103 48 115.525 48C115.217 48 114.943 47.9802 114.704 47.9404C114.465 47.9106 114.231 47.8503 114.002 47.7607V46.3428C114.171 46.4025 114.326 46.442 114.466 46.4619C114.615 46.4818 114.764 46.4922 114.913 46.4922C115.321 46.4922 115.635 46.3972 115.854 46.208C116.083 46.0188 116.312 45.6999 116.541 45.252L113.375 38.293H115.48L117.557 43.1016ZM76.8584 38.1436C78.1825 38.1436 79.1532 38.4672 79.7705 39.1143C80.3977 39.7514 80.7119 40.6572 80.7119 41.832C80.7119 43.0069 80.4034 43.9183 79.7861 44.5654C79.1688 45.2026 78.1925 45.5205 76.8584 45.5205C75.5344 45.5205 74.5635 45.2026 73.9463 44.5654C73.329 43.9183 73.0205 43.0069 73.0205 41.832C73.0205 40.6574 73.3292 39.7514 73.9463 39.1143C74.5735 38.4672 75.5443 38.1436 76.8584 38.1436ZM109.376 38.1436C110.441 38.1436 111.262 38.3628 111.84 38.8008C112.427 39.2289 112.721 39.9205 112.721 40.876V45.3721H110.974L110.869 44.7295C110.59 44.9783 110.247 45.1721 109.839 45.3115C109.431 45.4509 108.918 45.5205 108.301 45.5205C107.853 45.5205 107.434 45.4415 107.046 45.2822C106.668 45.113 106.359 44.8684 106.12 44.5498C105.891 44.2213 105.776 43.813 105.776 43.3252C105.776 42.6286 106.02 42.0714 106.508 41.6533C107.006 41.2352 107.738 41.0255 108.703 41.0254H110.794V40.8311C110.794 40.3932 110.67 40.0844 110.421 39.9053C110.182 39.7262 109.694 39.6367 108.957 39.6367C108.151 39.6368 107.374 39.761 106.628 40.0098V38.5918C106.956 38.4624 107.354 38.357 107.822 38.2773C108.3 38.1877 108.818 38.1436 109.376 38.1436ZM86.6533 39.667C86.3846 39.7068 86.0909 39.7661 85.7725 39.8457C85.454 39.9253 85.15 40.0147 84.8613 40.1143C84.5726 40.2138 84.328 40.3192 84.1289 40.4287V45.3721H82.1133V38.293H83.9795L84.0693 39.0244C84.3879 38.8253 84.7812 38.6456 85.249 38.4863C85.7269 38.3171 86.1953 38.2033 86.6533 38.1436V39.667ZM98.2363 42.8926L99.416 39.2041V38.293H100.954L102.299 42.8926L103.344 38.293H105.345L103.493 45.3721H101.642L100.282 41.2344L98.8936 45.3721H97.0117L95.1445 38.293H97.1611L98.2363 42.8926ZM64.5088 42.25L66.0771 37.0078V35.7539H67.7197L69.5723 42.2656L71.0654 35.7539H73.0371L70.8115 45.3711H68.8994L67.1377 39.2188L65.2412 45.3711H63.3145L61.0742 35.7539H63.0605L64.5088 42.25ZM89.7002 40.8467L92.3438 38.293H94.6436L91.791 41.1895L94.8086 45.3711H92.6729L90.5225 42.25L89.7002 43.042V45.3711H87.6846V35.3057H89.7002V40.8467ZM108.748 42.2803C107.962 42.2804 107.568 42.6039 107.568 43.251C107.568 43.8781 107.997 44.1913 108.853 44.1914C109.3 44.1914 109.689 44.1171 110.018 43.9678C110.346 43.8185 110.605 43.6292 110.794 43.4004V42.2803H108.748ZM76.8584 39.8604C76.2214 39.8604 75.7631 40.01 75.4844 40.3086C75.2057 40.5973 75.0664 41.1053 75.0664 41.832C75.0664 42.5586 75.2058 43.0714 75.4844 43.3701C75.7631 43.6588 76.2214 43.8037 76.8584 43.8037C77.5056 43.8037 77.9693 43.6588 78.248 43.3701C78.5266 43.0714 78.666 42.5586 78.666 41.832C78.666 41.1054 78.5267 40.5973 78.248 40.3086C77.9693 40.0099 77.5056 39.8604 76.8584 39.8604Z" fill="#141A1F"/>
<path d="M41.7607 3.48926C48.5655 3.48926 54.082 9.00574 54.082 15.8105V29.46L54.0811 29.6289C54.036 32.9585 52.6689 35.971 50.4844 38.1611V45.0322H49.0664C48.5156 45.0322 47.934 44.874 47.416 44.6855C46.8727 44.4878 46.2832 44.2132 45.6836 43.8926C44.6257 43.3269 43.4702 42.582 42.3779 41.7646C42.2232 41.7724 42.0674 41.7774 41.9111 41.7793L41.7607 41.7803H33.8018C30.926 41.7803 28.282 40.7929 26.1855 39.1416C27.0225 38.5569 27.7249 37.8816 28.2959 37.1826C29.8485 38.2914 31.7485 38.9453 33.8018 38.9453H41.877C42.1456 38.942 42.412 38.9266 42.6758 38.9014L43.2373 38.8486L43.6816 39.1943C44.7869 40.0552 45.9781 40.8357 47.0195 41.3926C47.2402 41.5106 47.4514 41.6155 47.6494 41.709V36.9238L48.1162 36.502C48.9017 35.7926 49.5651 34.9531 50.0781 34.0195H37.1816V31.0752H51.1094C51.1923 30.5916 51.2393 30.0956 51.2461 29.5898L51.2471 29.46V27.2598H40.4531V24.3154H51.2471V20.499H43.3965V17.5547H51.2471V15.8105C51.2471 10.5714 46.9998 6.32422 41.7607 6.32422H33.8018C33.7386 6.32422 33.6752 6.32787 33.6123 6.3291C33.3158 5.35513 32.9071 4.43055 32.4043 3.56738C32.8628 3.51563 33.3294 3.48926 33.8018 3.48926H41.7607Z" fill="#141A1F"/>
<path d="M20.6084 0C26.0685 0.000163082 30.6273 3.85952 31.7061 8.99902C33.287 14.3042 35.0976 23.7574 35.1104 23.8242H29.5488V26.7686H24.3154C24.3154 28.5676 26.1263 31.0378 28.5137 31.0381C28.5135 33.0009 25.754 38.0537 19.7354 38.0537H11.3398C5.0771 38.0536 0 32.9767 0 26.7139V11.3398C2.13984e-05 5.07707 5.07711 6.06327e-05 11.3398 0H20.6084ZM24.2061 12.6484C23.0018 12.6485 22.0254 13.6248 22.0254 14.8291C22.0254 16.0334 23.0017 17.0097 24.2061 17.0098C25.4104 17.0098 26.3867 16.0335 26.3867 14.8291C26.3867 13.6247 25.4104 12.6484 24.2061 12.6484Z" fill="#4A69E8"/>
<path d="M100.714 3.37695C101.061 4.02979 101.387 4.74374 101.692 5.51758L101.804 5.80176C102.055 6.45319 102.252 7.0205 102.395 7.50293L102.423 7.59863L102.33 7.63184L100.531 8.28027H106.11V11.1973H99.874V14.4854H105.441V14.834C105.441 14.9788 105.431 15.1428 105.411 15.3252V15.8105C105.35 18.2849 105.279 20.3846 105.198 22.1094C105.137 23.8325 105.056 25.2435 104.954 26.3408C104.873 27.4359 104.762 28.2932 104.618 28.9092C104.496 29.5204 104.34 29.9739 104.146 30.2559C103.876 30.6502 103.579 30.9294 103.253 31.082C102.957 31.2499 102.602 31.3638 102.19 31.4258H102.191C101.838 31.4881 101.395 31.5186 100.864 31.5186C100.356 31.5186 99.827 31.5086 99.2783 31.4883L99.1875 31.4844L99.1787 31.3945C99.1388 31.0155 99.0582 30.5844 98.9375 30.1016L98.8906 29.9326C98.7773 29.5449 98.6342 29.2051 98.4619 28.9121L98.3594 28.7373L98.5605 28.7539C99.0666 28.7944 99.5325 28.8245 99.957 28.8447C100.383 28.865 100.695 28.875 100.896 28.875C101.111 28.8749 101.265 28.8452 101.365 28.7949L101.403 28.7734C101.494 28.7188 101.59 28.6276 101.691 28.4932C101.743 28.4153 101.795 28.2916 101.844 28.1152C101.893 27.9384 101.937 27.7145 101.978 27.4434V27.4414L101.979 27.4404C102.079 26.8982 102.17 26.1212 102.251 25.1084C102.332 24.0761 102.402 22.7486 102.463 21.127L102.485 20.4951C102.517 19.5502 102.546 18.4994 102.572 17.3428H99.8359C99.7896 18.4737 99.701 19.6391 99.5693 20.8379C99.386 22.6913 98.9886 24.5441 98.3779 26.3965C97.786 28.2536 96.8581 30.0383 95.5947 31.75L95.5225 31.8477L95.4365 31.7617C95.1774 31.5026 94.8463 31.2221 94.4434 30.9199L94.4414 30.918C94.059 30.6161 93.6871 30.3553 93.3262 30.1348L93.2295 30.0752L93.2959 29.9834L93.4033 29.835C94.4981 28.3078 95.2985 26.7349 95.8057 25.1162C96.331 23.4189 96.6744 21.7523 96.8359 20.1172L96.8652 19.8105C97.0075 18.2855 97.0791 16.85 97.0791 15.5039V11.1973H93.9756V8.28027H99.5273C99.4202 7.82408 99.2615 7.30874 99.0508 6.73535L98.9414 6.44531C98.6379 5.65627 98.3342 4.93837 98.0312 4.29199L97.9814 4.18457L98.0938 4.14746L100.672 3.29883L100.714 3.37695ZM70.335 7.39453H69.0264V31.8232H66.627V26.0547C65.8241 26.2363 65.0247 26.4139 64.2295 26.5879C62.9519 26.8718 61.7651 27.1355 60.6699 27.3789L60.5674 27.4014L59.9727 24.7568L60.083 24.7393C60.5949 24.6574 61.1534 24.5619 61.7588 24.4541V7.39453H60.2988V4.59863H70.335V7.39453ZM82.8682 3.48633L82.877 4.48535C82.9013 6.8045 82.9496 9.04614 83.0205 11.21L83.0596 12.1211C83.065 12.2406 83.0706 12.3599 83.0762 12.4785H88.4961V15.1523H83.2197C83.2794 16.1439 83.3445 17.1 83.416 18.0205C83.5236 19.2511 83.6419 20.3897 83.7705 21.4365C84.6329 19.8572 85.3391 18.1537 85.8877 16.3252L85.9238 16.2051L86.0352 16.2617L88.3369 17.4287L88.3086 17.5137C87.6167 19.5894 86.7306 21.5136 85.6514 23.2852C85.25 23.9566 84.8282 24.6018 84.3857 25.2207C84.5507 25.9745 84.7222 26.607 84.9004 27.1182L84.96 27.2744C85.1014 27.6272 85.2469 27.8937 85.3936 28.0781C85.5602 28.2876 85.7194 28.3796 85.8691 28.3887C85.9173 28.3871 85.9941 28.345 86.0859 28.1709C86.1757 28.0008 86.2614 27.7377 86.3418 27.376L86.3721 27.2373C86.518 26.5278 86.6292 25.5756 86.7051 24.3799L86.7227 24.1035L86.8926 24.3223C87.0295 24.4982 87.2069 24.6856 87.4258 24.8848C87.666 25.0849 87.906 25.2651 88.1455 25.4248C88.3898 25.5877 88.5762 25.7222 88.7021 25.8271L88.7461 25.8643L88.7383 25.9219C88.5477 27.3507 88.3028 28.4822 88.002 29.3125L87.9414 29.4746C87.6153 30.3102 87.2629 30.899 86.877 31.2207C86.5216 31.5537 86.1537 31.7313 85.7754 31.7314H85.7725C84.9049 31.7107 84.1658 31.2483 83.5557 30.3721L83.4971 30.2861C83.0601 29.6307 82.6776 28.7777 82.3467 27.7305C82.3306 27.7479 82.315 27.7658 82.2988 27.7832L82.0479 28.0488C80.725 29.4327 79.3402 30.6138 77.8936 31.5918L77.8115 31.6484L77.751 31.5684C77.5725 31.3304 77.3225 31.05 77 30.7275C76.6784 30.4262 76.3883 30.1752 76.1289 29.9756L76.0107 29.8857L76.1348 29.8047C76.8548 29.3351 77.5565 28.8113 78.2393 28.2334H76.7871V27.4424H73.3164V29.6328H70.8545V16.3721H79.1875V27.3848C79.4962 27.0929 79.8009 26.7888 80.1016 26.4736L80.3389 26.2227C80.7879 25.7375 81.2179 25.2282 81.6309 24.6963C81.3912 23.3757 81.1867 21.9069 81.0166 20.291C80.8498 18.6922 80.7112 16.979 80.6016 15.1523H69.7598V12.4785H71.5352C71.4953 12.1712 71.4422 11.8367 71.374 11.4766L71.373 11.4746C71.2519 10.7277 71.1012 10.0314 70.9199 9.38672L70.8877 9.27441L71.0039 9.25488L72.6738 8.97656H70.3379V6.48535H73.6641C73.6238 6.36274 73.5825 6.23594 73.5381 6.10645H73.5371C73.2941 5.37732 73.0615 4.70874 72.8389 4.10156L72.7959 3.9834L75.292 3.53613L75.3721 3.52148L75.4062 3.59668C75.6707 4.18671 75.935 4.82763 76.1992 5.51855L76.2949 5.77246C76.3881 6.02401 76.4709 6.26216 76.5439 6.48535H79.6738V8.97656H77.0752L78.8564 9.28516L78.9756 9.30566L78.9385 9.4209C78.7156 10.1098 78.4934 10.8193 78.2705 11.5488H78.2695C78.1755 11.878 78.084 12.1882 77.9941 12.4785H80.4648C80.3448 9.66124 80.2546 6.66465 80.1943 3.48926L80.1924 3.38184H82.8672L82.8682 3.48633ZM112.554 3.92285L112.526 4.03027C112.242 5.14436 111.902 6.22655 111.507 7.27637H121.626V10.1025H110.27C109.561 11.5411 108.783 12.8003 107.935 13.8779H107.94C109.254 13.5949 110.578 13.281 111.912 12.9375C113.248 12.5731 114.502 12.1888 115.676 11.7842L116.108 11.6328C117.1 11.2788 117.966 10.9243 118.707 10.5713L118.771 10.542L118.822 10.5879L121.195 12.7051L121.046 12.7705C119.926 13.2591 118.674 13.7167 117.292 14.1436C116.778 14.3047 116.256 14.4598 115.728 14.6094C115.951 16.053 116.227 17.4538 116.555 18.8115C117.047 18.3765 117.531 17.9277 118.01 17.4658L118.226 17.2559C118.718 16.7697 119.141 16.3153 119.493 15.8926L119.562 15.8096L121.766 17.751L121.686 17.8301C120.872 18.6231 119.977 19.4255 119.002 20.2383L118.143 20.9385C117.864 21.1611 117.593 21.3736 117.33 21.5752C117.774 22.9092 118.298 24.1232 118.904 25.2168C119.749 26.7056 120.794 27.8802 122.037 28.7422L122.158 28.8262L122.039 28.9131C121.823 29.07 121.585 29.2878 121.324 29.5684C121.144 29.7788 120.969 29.9952 120.8 30.2168L120.632 30.4414C120.41 30.7436 120.229 31.0146 120.09 31.2539L120.029 31.3574L119.935 31.2832C118.543 30.1987 117.388 28.8079 116.47 27.1133L116.469 27.1123C115.572 25.4208 114.84 23.4859 114.271 21.3096H114.27C113.792 19.4189 113.401 17.413 113.093 15.293C113.081 15.2957 113.069 15.299 113.058 15.3018C112.306 15.4818 111.562 15.6497 110.826 15.8076V27.0967L115.055 25.3242V25.4814C115.055 25.8609 115.084 26.3124 115.145 26.8359C115.225 27.3401 115.306 27.7412 115.386 28.04L115.409 28.127L115.326 28.1631C113.947 28.7714 112.822 29.269 111.95 29.6543C111.079 30.0595 110.4 30.3736 109.913 30.5967C109.431 30.8379 109.07 31.0282 108.83 31.168C108.611 31.3275 108.433 31.4667 108.295 31.585L108.144 31.7139L108.124 31.5312C108.046 31.3398 107.919 31.1073 107.743 30.833C107.562 30.5715 107.371 30.3095 107.17 30.0479L107.169 30.0469C106.989 29.8064 106.832 29.6302 106.698 29.5156L106.608 29.4395L106.695 29.3594C106.949 29.1256 107.206 28.7906 107.466 28.3506C107.718 27.9046 107.848 27.3256 107.848 26.6074V14.0107L107.84 13.9961C107.673 14.204 107.503 14.4055 107.331 14.5996L107.253 14.6875L107.175 14.5996C107.021 14.4262 106.795 14.2391 106.495 14.0391L106.491 14.0371L106.488 14.0342L105.637 13.3652C105.356 13.1444 105.107 12.9754 104.891 12.8574L104.767 12.79L104.867 12.6904C105.973 11.6051 106.92 10.2468 107.706 8.61328L107.852 8.30566C108.57 6.76127 109.138 5.13638 109.555 3.43164L109.578 3.33398L112.554 3.92285ZM96.3721 23.4473C96.2365 24.0103 96.0826 24.5776 95.9062 25.1475C95.3789 26.8307 94.5368 28.4631 93.3809 30.0449C93.7459 30.268 94.1215 30.5317 94.5068 30.8359C94.9123 31.1401 95.2472 31.4239 95.5107 31.6875V31.6865C95.2473 31.4232 94.9129 31.1397 94.5078 30.8359C94.1225 30.5317 93.7469 30.268 93.3818 30.0449C94.5378 28.4631 95.3799 26.8307 95.9072 25.1475C96.0836 24.5777 96.2365 24.0102 96.3721 23.4473ZM85.6953 31.624L85.7754 31.627L85.6514 31.6191C85.666 31.6203 85.6806 31.6232 85.6953 31.624ZM85.498 31.6025C85.5262 31.6066 85.5545 31.6103 85.583 31.6133C85.5545 31.6103 85.5262 31.6066 85.498 31.6025ZM85.334 31.5732C85.367 31.5805 85.4002 31.587 85.4336 31.5928C85.4002 31.587 85.367 31.5805 85.334 31.5732ZM85.2021 31.5391C85.2317 31.5475 85.2611 31.5563 85.291 31.5635C85.2611 31.5563 85.2317 31.5475 85.2021 31.5391ZM85.0664 31.4961C85.0843 31.5025 85.1021 31.5087 85.1201 31.5146C85.1021 31.5087 85.0843 31.5025 85.0664 31.4961ZM84.9219 31.4385C84.942 31.4473 84.9621 31.4557 84.9824 31.4639C84.9621 31.4557 84.942 31.4473 84.9219 31.4385ZM100.48 31.4121L100.864 31.4131C100.641 31.4131 100.414 31.4102 100.184 31.4062C100.283 31.4079 100.382 31.4111 100.48 31.4121ZM98.5527 28.8584C98.7555 29.2031 98.9174 29.6088 99.0391 30.0752C99.1607 30.5619 99.2417 30.9985 99.2822 31.3838C99.5378 31.3933 99.7894 31.3993 100.036 31.4043C99.7899 31.3993 99.5392 31.3932 99.2842 31.3838C99.2436 30.9984 99.1617 30.5619 99.04 30.0752C98.9184 29.6088 98.7565 29.2031 98.5537 28.8584H98.5527ZM84.749 31.3545C84.7798 31.3711 84.8106 31.3873 84.8418 31.4023C84.8106 31.3873 84.7798 31.3711 84.749 31.3545ZM84.6152 31.2773C84.6504 31.2992 84.6859 31.32 84.7217 31.3398C84.6859 31.32 84.6504 31.2992 84.6152 31.2773ZM84.4961 31.1982C84.5204 31.2153 84.5447 31.232 84.5693 31.248C84.5447 31.232 84.5204 31.2153 84.4961 31.1982ZM108.089 31.2129C108.074 31.1848 108.058 31.1562 108.042 31.127C108.058 31.1562 108.074 31.1848 108.089 31.2129ZM113.807 18.7959C113.98 19.646 114.167 20.4752 114.371 21.2832C114.939 23.4531 115.669 25.3802 116.562 27.0635C117.474 28.7468 118.621 30.1263 120 31.2012V31.2002C118.621 30.1254 117.476 28.7464 116.563 27.0635C115.671 25.3802 114.941 23.4533 114.373 21.2832C114.169 20.4751 113.98 19.6462 113.807 18.7959ZM84.335 31.0771C84.3698 31.1056 84.405 31.1329 84.4404 31.1592C84.405 31.1329 84.3698 31.1056 84.335 31.0771ZM86.8232 31.127C86.8622 31.0937 86.901 31.0578 86.9395 31.0186C86.901 31.0578 86.8622 31.0937 86.8232 31.127ZM107.762 27.9316C107.705 28.1008 107.639 28.2583 107.558 28.4023C107.294 28.8484 107.03 29.1932 106.767 29.4365C106.909 29.5582 107.071 29.7412 107.253 29.9844C107.456 30.248 107.649 30.5118 107.831 30.7754C107.907 30.8929 107.973 31.0038 108.031 31.1074C107.973 31.0039 107.907 30.8928 107.832 30.7754C107.65 30.5118 107.457 30.248 107.254 29.9844C107.071 29.7411 106.91 29.5582 106.768 29.4365C107.031 29.1932 107.295 28.8485 107.559 28.4023C107.64 28.2584 107.705 28.1007 107.762 27.9316ZM84.1885 30.9492C84.0687 30.838 83.9531 30.7128 83.8408 30.5742C83.9532 30.7128 84.0687 30.838 84.1885 30.9492ZM76.1924 29.8926C76.3242 29.994 76.4634 30.1086 76.6104 30.2354C76.7573 30.3621 76.912 30.5013 77.0742 30.6533H77.0752C76.7507 30.3491 76.456 30.0954 76.1924 29.8926C76.379 29.7709 76.5639 29.6446 76.748 29.5156C76.5639 29.6446 76.3791 29.7708 76.1924 29.8926ZM87.0205 30.9297C87.0357 30.9124 87.0513 30.8952 87.0664 30.877C87.0513 30.8952 87.0357 30.9124 87.0205 30.9297ZM78.7754 30.833C78.8046 30.8111 78.8342 30.7897 78.8633 30.7676C78.8342 30.7897 78.8046 30.8111 78.7754 30.833ZM87.1572 30.7598C87.1696 30.7431 87.1821 30.7263 87.1943 30.709C87.1821 30.7263 87.1696 30.7431 87.1572 30.7598ZM87.2705 30.5967C87.2881 30.5697 87.3057 30.542 87.3232 30.5137C87.3057 30.542 87.2881 30.5697 87.2705 30.5967ZM79.1377 30.5537C79.2182 30.4907 79.2988 30.4276 79.3789 30.3633C79.2988 30.4276 79.2182 30.4907 79.1377 30.5537ZM83.8105 30.5381C83.7735 30.4913 83.7364 30.4433 83.7002 30.3936L83.6963 30.3887C83.7337 30.4402 83.7722 30.4897 83.8105 30.5381ZM87.3896 30.4033C87.4117 30.3652 87.4342 30.3264 87.4561 30.2861C87.4342 30.3264 87.4117 30.3652 87.3896 30.4033ZM87.5049 30.1904C87.5294 30.1431 87.5548 30.095 87.5791 30.0449C87.5548 30.095 87.5294 30.1431 87.5049 30.1904ZM79.6074 30.1768C79.7048 30.0967 79.8027 30.0167 79.8994 29.9346C79.8027 30.0167 79.7048 30.0967 79.6074 30.1768ZM87.6318 29.9346C87.6557 29.8832 87.6795 29.8305 87.7031 29.7764C87.6795 29.8305 87.6557 29.8832 87.6318 29.9346ZM83.1729 29.5156C83.2218 29.6115 83.2718 29.7041 83.3223 29.7939C83.2718 29.7041 83.2218 29.6115 83.1729 29.5156ZM80.1152 29.7471C80.2035 29.6705 80.2921 29.5939 80.3799 29.5156C80.2921 29.5939 80.2035 29.6705 80.1152 29.7471ZM87.8438 29.4365C87.8151 29.5099 87.7858 29.5811 87.7568 29.6504C87.7653 29.6301 87.7748 29.6095 87.7832 29.5889L87.8438 29.4365C87.882 29.3385 87.9195 29.2356 87.9561 29.1279C87.9195 29.2355 87.882 29.3385 87.8438 29.4365ZM70.96 29.5273V29.5283H73.2109V29.5273H70.96ZM82.9404 29.0283C83.003 29.1706 83.0675 29.3071 83.1328 29.4385C83.0675 29.3071 83.003 29.1706 82.9404 29.0283ZM80.6123 29.3047C80.702 29.2228 80.7917 29.1403 80.8809 29.0566C80.7917 29.1403 80.702 29.2228 80.6123 29.3047ZM101.777 28.5537C101.656 28.7159 101.534 28.8278 101.412 28.8887L101.404 28.8916C101.407 28.8903 101.41 28.89 101.413 28.8887C101.535 28.8279 101.657 28.7168 101.778 28.5547C101.805 28.5153 101.829 28.4666 101.854 28.4102C101.829 28.4665 101.804 28.5143 101.777 28.5537ZM81.1191 28.8291C81.1959 28.7553 81.2732 28.6816 81.3496 28.6064C81.2732 28.6816 81.1959 28.7553 81.1191 28.8291ZM82.5801 28.0977C82.6266 28.2322 82.6742 28.363 82.7227 28.4902C82.6742 28.363 82.6266 28.2322 82.5801 28.0977ZM88.1562 28.4551C88.1594 28.4431 88.1629 28.4311 88.166 28.4189C88.1629 28.4311 88.1594 28.4431 88.1562 28.4551ZM81.9727 27.9766C81.8602 28.0943 81.7462 28.2095 81.6328 28.3242C81.6631 28.2935 81.6943 28.2633 81.7246 28.2324L81.9727 27.9766C82.1145 27.8283 82.2539 27.6768 82.3926 27.5244C82.4431 27.6903 82.4959 27.8515 82.5488 28.0078C82.4957 27.8511 82.4432 27.6898 82.3926 27.5234C82.2538 27.676 82.1147 27.8281 81.9727 27.9766ZM88.2354 28.1367C88.2478 28.0846 88.2613 28.0321 88.2734 27.9785C88.2613 28.0321 88.2478 28.0846 88.2354 28.1367ZM76.8916 28.1289H78.5195L78.5205 28.1279H76.8926V27.3379H76.8916V28.1289ZM85.0449 27.7188C85.0302 27.6899 85.0175 27.6593 85.0029 27.6289C85.0175 27.6593 85.0302 27.6899 85.0449 27.7188ZM88.3271 27.7305C88.3401 27.6692 88.3526 27.607 88.3652 27.5439C88.3526 27.607 88.3401 27.6692 88.3271 27.7305ZM107.845 27.6406C107.858 27.5833 107.869 27.5246 107.88 27.4648C107.869 27.5246 107.858 27.5833 107.845 27.6406ZM102.676 17.3428C102.644 18.7654 102.609 20.0281 102.568 21.1309L102.545 21.7266C102.489 23.0815 102.426 24.2114 102.355 25.1162C102.274 26.1302 102.182 26.9114 102.081 27.459L102.074 27.5029C102.076 27.4884 102.08 27.4738 102.082 27.459C102.183 26.9114 102.275 26.1303 102.356 25.1162C102.438 24.082 102.509 22.7539 102.569 21.1318C102.61 20.0289 102.644 18.7656 102.676 17.3428ZM84.9248 27.4619C84.9265 27.4659 84.9289 27.4696 84.9307 27.4736C84.9276 27.4667 84.9239 27.4601 84.9209 27.4531L84.9248 27.4619ZM86.5029 27.1113H86.5039H86.5029ZM88.4287 27.2148C88.4349 27.1812 88.4412 27.1474 88.4473 27.1133C88.4412 27.1474 88.4349 27.1812 88.4287 27.2148ZM88.5049 26.7764C88.5127 26.7289 88.5207 26.6811 88.5283 26.6328C88.5207 26.6811 88.5127 26.7289 88.5049 26.7764ZM109.174 13.71C108.766 13.8032 108.359 13.895 107.953 13.9824V26.6074L107.951 26.6953C107.952 26.6662 107.954 26.6369 107.954 26.6074V13.9824C108.36 13.895 108.766 13.8031 109.174 13.71ZM88.5908 26.2227C88.5924 26.2114 88.5941 26.1998 88.5957 26.1885L88.6338 25.9072C88.6196 26.014 88.6057 26.1193 88.5908 26.2227ZM88.4941 25.7988C88.4823 25.79 88.4704 25.7807 88.458 25.7715C88.4705 25.7807 88.4823 25.79 88.4941 25.7988ZM88.3027 25.6602C88.2881 25.6499 88.2731 25.6385 88.2578 25.6279L88.1846 25.5781C88.2261 25.6063 88.2653 25.634 88.3027 25.6602ZM76.8916 25.3604H76.8926V22.8955H76.8916V25.3604ZM73.3164 25.2549H76.7871V23.001H73.3164V25.2549ZM84.4531 24.9395C84.5268 24.8343 84.6003 24.7287 84.6729 24.6221C84.6004 24.7288 84.5268 24.8343 84.4531 24.9395ZM84.8516 24.3564C84.927 24.2427 85.002 24.1282 85.0762 24.0127C85.002 24.1282 84.927 24.2426 84.8516 24.3564ZM64.0986 24.0127C64.9268 23.842 65.7699 23.6672 66.627 23.4893V19.8975H64.0986V24.0127ZM85.5625 23.2305C85.443 23.4304 85.3204 23.6271 85.1973 23.8223C85.3204 23.6272 85.4431 23.4303 85.5625 23.2305C85.6934 23.0156 85.8211 22.7984 85.9463 22.5791C85.8211 22.7984 85.6934 23.0156 85.5625 23.2305ZM81.5557 23.6221C81.5643 23.6764 81.5733 23.7303 81.582 23.7842C81.5733 23.7303 81.5643 23.6764 81.5557 23.6221ZM81.3828 22.4463C81.3936 22.5251 81.404 22.6036 81.415 22.6816C81.404 22.6036 81.3936 22.5251 81.3828 22.4463ZM86.2275 22.0703C86.2534 22.0227 86.2801 21.9756 86.3057 21.9277C86.2801 21.9756 86.2534 22.0227 86.2275 22.0703ZM81.2275 21.2275C81.2452 21.3773 81.2629 21.5258 81.2812 21.6729C81.2629 21.5258 81.2452 21.3773 81.2275 21.2275ZM86.54 21.4746C86.5748 21.4066 86.6103 21.3389 86.6445 21.2705C86.6103 21.3389 86.5748 21.4066 86.54 21.4746ZM117.813 21.0645C117.866 21.0227 117.92 20.981 117.974 20.9385C117.92 20.9811 117.866 21.0227 117.813 21.0645ZM76.8916 20.8877H76.8926V18.5156H76.8916V20.8877ZM86.8555 20.8369C86.8999 20.744 86.9448 20.6512 86.9883 20.5576C86.9448 20.6512 86.8999 20.744 86.8555 20.8369ZM73.3164 20.7832H76.7871V18.6201H73.3164V20.7832ZM118.512 20.5039C118.534 20.4854 118.558 20.4679 118.581 20.4492L118.822 20.251C118.718 20.337 118.614 20.4205 118.512 20.5039ZM97.1094 17.9639C97.0692 18.6644 97.0137 19.386 96.9404 20.1279L96.916 20.3496C96.9241 20.2756 96.9341 20.2018 96.9414 20.1279C97.0147 19.3861 97.0692 18.6644 97.1094 17.9639ZM87.1572 20.1826C87.2038 20.0783 87.2514 19.9743 87.2969 19.8691C87.2514 19.9743 87.2038 20.0783 87.1572 20.1826ZM99.5547 19.9443C99.5589 19.8997 99.5633 19.8551 99.5674 19.8105C99.5633 19.8551 99.5589 19.8997 99.5547 19.9443ZM87.4619 19.4766C87.5091 19.3627 87.5566 19.2487 87.6025 19.1338C87.5566 19.2487 87.5092 19.3627 87.4619 19.4766ZM80.9766 18.7822C80.9871 18.9 80.998 19.0172 81.0088 19.1338C80.998 19.0172 80.9871 18.9 80.9766 18.7822ZM117.811 17.8018C117.377 18.2132 116.938 18.6132 116.494 19.0029H116.495C116.939 18.6134 117.378 18.2131 117.811 17.8018ZM87.7471 18.7627C87.7932 18.6427 87.8391 18.5224 87.8838 18.4014C87.8391 18.5224 87.7932 18.6427 87.7471 18.7627ZM113.641 17.9482C113.687 18.1952 113.736 18.4401 113.785 18.6836C113.736 18.4401 113.687 18.1952 113.641 17.9482ZM80.8115 16.7207C80.8488 17.2401 80.8894 17.7495 80.9316 18.249C80.8894 17.7495 80.8488 17.2401 80.8115 16.7207ZM88.0186 18.0283C88.0376 17.9745 88.0583 17.9212 88.0771 17.8672L88.208 17.4805C88.1467 17.6644 88.0829 17.8468 88.0186 18.0283ZM113.076 15.1885C113.111 15.1801 113.145 15.1723 113.18 15.1641C113.316 16.1153 113.47 17.0433 113.641 17.9482C113.47 17.043 113.317 16.1146 113.181 15.1631C113.146 15.1714 113.111 15.1802 113.076 15.1885ZM119.573 15.96C119.168 16.4466 118.671 16.9743 118.083 17.542L118.03 17.5928C118.048 17.5757 118.066 17.5591 118.084 17.542C118.672 16.9743 119.169 16.4466 119.574 15.96H119.573ZM85.6699 17.3428C85.6965 17.2646 85.725 17.187 85.751 17.1084L85.7607 17.0781C85.7316 17.1669 85.6999 17.2546 85.6699 17.3428ZM64.0986 17.2852H66.627V13.6309H64.0986V17.2852ZM80.7002 15.0469C80.7305 15.557 80.7632 16.0584 80.7979 16.5508C80.7631 16.0584 80.7334 15.557 80.7031 15.0469H80.7002ZM97.1836 15.5625C97.1836 15.5428 97.1846 15.5226 97.1846 15.5029V11.0928H97.1836V15.5625ZM69.8643 12.583V15.0469L69.8652 12.583H69.8643ZM105.333 14.9629C105.333 14.9567 105.335 14.9505 105.335 14.9443V14.8926C105.335 14.9155 105.334 14.9389 105.333 14.9629ZM104.94 12.7656C105.164 12.8873 105.417 13.0601 105.701 13.2832C105.985 13.5063 106.27 13.7291 106.554 13.9521C106.858 14.1547 107.091 14.347 107.253 14.5293C107.091 14.3471 106.858 14.1545 106.555 13.9521C106.271 13.7291 105.986 13.5053 105.702 13.2822C105.419 13.0594 105.165 12.8872 104.942 12.7656C105.032 12.6781 105.116 12.5852 105.203 12.4941C105.116 12.5854 105.03 12.6779 104.94 12.7656ZM116.413 14.3008C116.632 14.2359 116.85 14.1695 117.066 14.1025C116.85 14.1695 116.632 14.2358 116.413 14.3008ZM111.938 13.0391C111.522 13.146 111.108 13.2485 110.694 13.3496C111.108 13.2484 111.524 13.1461 111.939 13.0391C112.075 13.0022 112.208 12.9631 112.342 12.9258C112.208 12.9632 112.073 13.0021 111.938 13.0391ZM75.9336 11.9736C75.8801 12.1846 75.8259 12.3878 75.7705 12.583H75.7715C75.8269 12.3879 75.8801 12.1845 75.9336 11.9736ZM80.2988 3.4873C80.3445 5.89042 80.4075 8.19088 80.4873 10.3887C80.5139 11.1214 80.5428 11.8428 80.5732 12.5527C80.5737 12.5628 80.5738 12.5729 80.5742 12.583H80.5752C80.5748 12.5729 80.5737 12.5628 80.5732 12.5527C80.482 10.4233 80.4076 8.19115 80.3506 5.85645L80.2998 3.4873H80.2988ZM71.4775 11.457C71.3559 10.7068 71.204 10.0072 71.0215 9.3584L73.0283 9.02344L71.0205 9.3584C71.0661 9.52062 71.1105 9.68594 71.1523 9.85449C71.2778 10.3602 71.3863 10.8943 71.4775 11.457ZM73.1279 8.99023C73.3322 9.60314 73.5059 10.2869 73.6484 11.04C73.7654 11.5811 73.851 12.061 73.9053 12.4785H75.6914C75.8192 12.0218 75.9422 11.5214 76.0596 10.9785V10.9766L76.126 10.6992C76.2739 10.0632 76.3827 9.49002 76.4531 8.97949L76.4541 8.97656H73.123L73.1279 8.99023ZM73.7861 12.3945C73.7753 12.3163 73.7649 12.2358 73.752 12.1533C73.7649 12.2358 73.7753 12.3163 73.7861 12.3945ZM73.7158 11.9355C73.706 11.8782 73.6954 11.82 73.6846 11.7607C73.6954 11.82 73.706 11.8782 73.7158 11.9355ZM118.752 10.666C117.9 11.0716 116.886 11.4772 115.71 11.8828L115.682 11.8926C115.691 11.8892 115.701 11.8862 115.711 11.8828C116.887 11.4774 117.9 11.0715 118.752 10.666ZM85.4717 5.29199C85.7773 5.84205 86.0827 6.45316 86.3877 7.12402L86.5 7.36621C86.7602 7.93115 86.9973 8.48145 87.2109 9.01562L87.2998 9.24121C87.5004 9.76062 87.655 10.2268 87.7627 10.6396L87.7861 10.7305L85.3633 11.6602L85.3379 11.54C85.2502 11.1193 85.1164 10.6429 84.9355 10.1113L84.8545 9.87988C84.6323 9.25383 84.3796 8.61737 84.0967 7.9707V7.96973C83.8138 7.30304 83.5213 6.6868 83.2188 6.12207L83.1611 6.01465L85.3447 5.24414L85.4277 5.21484L85.4717 5.29199ZM84.7803 9.37207C84.8398 9.53037 84.8984 9.68769 84.9541 9.84473C85.0099 10.002 85.0612 10.1553 85.1094 10.3037C85.2056 10.6001 85.2867 10.8787 85.3525 11.1396L85.4404 11.5186L85.3535 11.1396C85.2547 10.748 85.1214 10.3162 84.9541 9.84473C84.8984 9.68769 84.8398 9.53037 84.7803 9.37207ZM73.6396 11.5186C73.6134 11.384 73.5845 11.2451 73.5537 11.1016C73.5845 11.2451 73.6134 11.384 73.6396 11.5186ZM94.0801 11.0928H94.082V8.38477H94.0801V11.0928ZM64.0986 11.0488H66.627V7.39453H64.0986V11.0488ZM109.822 10.7451C109.842 10.7076 109.863 10.6706 109.883 10.6328C109.863 10.6706 109.842 10.7076 109.822 10.7451ZM87.6143 10.5C87.5988 10.445 87.5835 10.3889 87.5664 10.332C87.5835 10.3889 87.5988 10.445 87.6143 10.5ZM87.4941 10.1025C87.4793 10.0566 87.465 10.0099 87.4492 9.96289C87.465 10.0099 87.4793 10.0566 87.4941 10.1025ZM87.3711 9.73926C87.3517 9.68435 87.3322 9.62857 87.3115 9.57227C87.3322 9.62857 87.3517 9.68435 87.3711 9.73926ZM87.2246 9.33887C87.2171 9.31914 87.2098 9.29919 87.2021 9.2793L87.165 9.18652C87.1852 9.2379 87.2054 9.28854 87.2246 9.33887ZM70.4424 6.58984V8.87207H79.5693V8.87109H70.4434V6.58984H70.4424ZM109.656 3.45605C109.21 5.28119 108.592 7.01556 107.801 8.6582L107.758 8.74414C107.772 8.71539 107.788 8.68713 107.802 8.6582C108.593 7.01554 109.21 5.28122 109.656 3.45605ZM98.127 4.24707C98.4311 4.896 98.7349 5.61635 99.0391 6.40723C99.3101 7.11183 99.5067 7.73661 99.6328 8.28027C99.5067 7.73667 99.311 7.11172 99.04 6.40723C98.7359 5.61636 98.4321 4.896 98.1279 4.24707L100.621 3.42578L98.127 4.24707ZM111.354 7.38086H111.355C111.371 7.3402 111.384 7.29857 111.399 7.25781C111.384 7.29879 111.369 7.33998 111.354 7.38086ZM60.4033 7.29004H60.4043V4.7041H60.4033V7.29004ZM83.3105 6.07324C83.3865 6.21504 83.4624 6.35969 83.5371 6.50781H83.5381C83.4634 6.3597 83.3875 6.21504 83.3115 6.07324H83.3105ZM102.075 6.85254C102.061 6.81108 102.047 6.76897 102.032 6.72656C102.047 6.76898 102.061 6.81108 102.075 6.85254ZM111.63 6.62793C111.647 6.57949 111.664 6.53099 111.681 6.48242C111.664 6.53099 111.647 6.57949 111.63 6.62793ZM76.3965 6.37695C76.369 6.2952 76.3406 6.21145 76.3105 6.12598C76.3407 6.21143 76.3689 6.29522 76.3965 6.37695ZM111.899 5.82715C111.917 5.77317 111.934 5.71918 111.951 5.66504C111.934 5.71918 111.917 5.77317 111.899 5.82715ZM76.2021 5.82715C76.2 5.82142 76.1984 5.81531 76.1963 5.80957L76.1465 5.67676C76.1656 5.72741 76.1839 5.77763 76.2021 5.82715ZM73.8086 6.58594C73.7554 6.42136 73.6985 6.25046 73.6377 6.07324C73.516 5.70828 73.3969 5.35799 73.2803 5.02344H73.2793C73.3959 5.35808 73.515 5.70817 73.6367 6.07324C73.698 6.25194 73.756 6.424 73.8096 6.58984L73.8086 6.58594ZM84.1992 30.959C84.2355 30.9923 84.2717 31.0248 84.3086 31.0557C84.2717 31.0248 84.2355 30.9923 84.1992 30.959ZM82.7549 28.5762C82.8157 28.7324 82.8768 28.8834 82.9404 29.0283C82.8767 28.8834 82.8157 28.7324 82.7549 28.5762ZM84.75 19.6904C84.8262 19.52 84.9016 19.3488 84.9746 19.1758C84.9016 19.3487 84.8262 19.52 84.75 19.6904ZM71.6494 12.5449C71.6317 12.4012 71.6099 12.2519 71.5859 12.0967C71.6098 12.2519 71.6317 12.4012 71.6494 12.5449Z" fill="#141A1F"/>
</svg>
